<svg width="15" height="15" viewBox="0 0 15 15" fill="none" xmlns="http://www.w3.org/2000/svg">
<g transform="translate(-311.9686 -33.9782)">
<path d="M325.482 34.667C325.646 34.6943 325.755 34.7764 325.864 34.8857C325.946 35.0224 326.001 35.1592 326.001 35.2959C326.001 37.5928 325.427 39.7256 324.278 41.6943C323.13 43.6084 321.626 45.1396 319.712 46.2607C317.743 47.4092 315.61 47.9834 313.314 47.9834C313.15 47.9834 313.013 47.956 312.903 47.8467C312.767 47.7646 312.685 47.6279 312.685 47.4639L312.028 44.6201C311.974 44.4834 312.001 44.3467 312.083 44.1826C312.138 44.0459 312.247 43.9365 312.411 43.8818L315.474 42.5693C315.583 42.5146 315.72 42.5146 315.857 42.542C315.993 42.5967 316.13 42.6514 316.239 42.7607L317.579 44.4014C318.646 43.9092 319.603 43.2529 320.423 42.4053C321.243 41.5849 321.927 40.6279 322.419 39.5615L320.778 38.2217C320.669 38.1123 320.587 38.0029 320.56 37.8662C320.505 37.7295 320.532 37.5928 320.587 37.456L321.9 34.3935C321.954 34.2568 322.036 34.1474 322.2 34.0654C322.337 34.0107 322.474 33.9834 322.638 34.0107L325.482 34.667Z" fill="#111111"/>
</g>
</svg>