<svg width="12" height="7" viewBox="0 0 12 7" fill="none" xmlns="http://www.w3.org/2000/svg">
<path d="M11.9186 0.624434C11.9729 0.705882 12 0.78733 12 0.868778C12 0.977376 11.9729 1.03167 11.9186 1.08597L6.24434 6.78733C6.1629 6.84163 6.08145 6.86878 6 6.86878C5.8914 6.86878 5.8371 6.84163 5.78281 6.78733L0.081448 1.08597C0.0271493 1.03167 0 0.977376 0 0.868778C0 0.78733 0.0271493 0.705882 0.081448 0.624434L0.624434 0.081448C0.678733 0.0271493 0.733032 0 0.841629 0C0.923077 0 1.00452 0.0271493 1.08597 0.081448L6 4.99548L10.914 0.081448C10.9683 0.0271493 11.0498 0 11.1584 0C11.2398 0 11.3213 0.0271493 11.3756 0.081448L11.9186 0.624434Z" fill="white"/>
</svg>
